<svg width="36" height="24" viewBox="0 0 36 24" fill="none" xmlns="http://www.w3.org/2000/svg">
<path d="M34.0625 10.5C34.8909 10.5 35.5625 11.1716 35.5625 12C35.5625 12.8284 34.8909 13.5 34.0625 13.5V12V10.5ZM0.939401 13.0607C0.353614 12.4749 0.353614 11.5251 0.939401 10.9393L10.4853 1.3934C11.0711 0.807612 12.0209 0.807612 12.6067 1.3934C13.1924 1.97918 13.1924 2.92893 12.6067 3.51472L4.12138 12L12.6067 20.4853C13.1924 21.0711 13.1924 22.0208 12.6067 22.6066C12.0209 23.1924 11.0711 23.1924 10.4853 22.6066L0.939401 13.0607ZM34.0625 12V13.5H2.00006V12V10.5H34.0625V12Z" fill="#090022"/>
</svg>
