<svg width="199" height="35" viewBox="0 0 199 35" fill="none" xmlns="http://www.w3.org/2000/svg">
<path d="M30.1163 34.7055H23.0539L7.06245 11.1921V34.7055H0V0.392705H7.06245L23.0539 23.9551V0.392705H30.1163V34.7055Z" fill="white"/>
<path d="M30.1163 34.7055H23.0539L7.06245 11.1921V34.7055H0V0.392705H7.06245L23.0539 23.9551V0.392705H30.1163V34.7055Z" fill="url(#paint0_linear_6_2512)" fill-opacity="0.4"/>
<path d="M46.3357 16.1502V33.822H40.2822V16.1502H46.3357Z" fill="white"/>
<path d="M46.3357 16.1502V33.822H40.2822V16.1502H46.3357Z" fill="url(#paint1_linear_6_2512)" fill-opacity="0.4"/>
<path d="M161.13 0.441795V5.98878H151.747V34.7055H144.685V5.98878H135.302V0.441795H161.13Z" fill="white"/>
<path d="M161.13 0.441795V5.98878H151.747V34.7055H144.685V5.98878H135.302V0.441795H161.13Z" fill="url(#paint2_linear_6_2512)" fill-opacity="0.4"/>
<path d="M125.524 0.441795V34.7055H118.461V20.1262H103.378V34.7055H96.3156V0.441795H103.378V14.5302H118.461V0.441795H125.524Z" fill="white"/>
<path d="M125.524 0.441795V34.7055H118.461V20.1262H103.378V34.7055H96.3156V0.441795H103.378V14.5302H118.461V0.441795H125.524Z" fill="url(#paint3_linear_6_2512)" fill-opacity="0.4"/>
<path d="M199 0.441795L187.095 22.777V34.7055H180.032V22.777L168.077 0.441795H176.047L183.614 16.101L191.13 0.441795H199Z" fill="white"/>
<path d="M199 0.441795L187.095 22.777V34.7055H180.032V22.777L168.077 0.441795H176.047L183.614 16.101L191.13 0.441795H199Z" fill="url(#paint4_linear_6_2512)" fill-opacity="0.4"/>
<path d="M81.2125 10.7503C80.4054 9.31042 79.2956 8.21412 77.8831 7.46143C76.4706 6.70874 74.8227 6.3324 72.9393 6.3324C70.8542 6.3324 69.0045 6.79056 67.3903 7.70687C65.776 8.62319 64.5148 9.93221 63.6068 11.6339C62.6988 13.3357 62.2448 15.2992 62.2448 17.5245C62.2448 19.8153 62.6988 21.8116 63.6068 23.5133C64.5485 25.2151 65.8433 26.5241 67.4912 27.4404C69.1391 28.3567 71.056 28.8149 73.242 28.8149C75.9325 28.8149 78.1353 28.1276 79.8505 26.7532C81.5656 25.346 82.6923 23.3988 83.2304 20.9116H71.1233V15.6592H90.1919V21.648C89.7211 24.0369 88.7122 26.2459 87.1651 28.2749C85.6181 30.3039 83.6171 31.9402 81.1621 33.1837C78.7406 34.3946 76.0166 35 72.9898 35C69.5931 35 66.5159 34.2637 63.7582 32.791C61.0341 31.2856 58.8817 29.2076 57.3011 26.5568C55.754 23.906 54.9805 20.8953 54.9805 17.5245C54.9805 14.1538 55.754 11.1431 57.3011 8.49228C58.8817 5.80879 61.0341 3.73071 63.7582 2.25806C66.5159 0.752688 69.5763 0 72.9393 0C76.9078 0 80.3549 0.949041 83.2808 2.84712C86.2067 4.71248 88.2245 7.34689 89.3343 10.7503H81.2125Z" fill="white"/>
<path d="M81.2125 10.7503C80.4054 9.31042 79.2956 8.21412 77.8831 7.46143C76.4706 6.70874 74.8227 6.3324 72.9393 6.3324C70.8542 6.3324 69.0045 6.79056 67.3903 7.70687C65.776 8.62319 64.5148 9.93221 63.6068 11.6339C62.6988 13.3357 62.2448 15.2992 62.2448 17.5245C62.2448 19.8153 62.6988 21.8116 63.6068 23.5133C64.5485 25.2151 65.8433 26.5241 67.4912 27.4404C69.1391 28.3567 71.056 28.8149 73.242 28.8149C75.9325 28.8149 78.1353 28.1276 79.8505 26.7532C81.5656 25.346 82.6923 23.3988 83.2304 20.9116H71.1233V15.6592H90.1919V21.648C89.7211 24.0369 88.7122 26.2459 87.1651 28.2749C85.6181 30.3039 83.6171 31.9402 81.1621 33.1837C78.7406 34.3946 76.0166 35 72.9898 35C69.5931 35 66.5159 34.2637 63.7582 32.791C61.0341 31.2856 58.8817 29.2076 57.3011 26.5568C55.754 23.906 54.9805 20.8953 54.9805 17.5245C54.9805 14.1538 55.754 11.1431 57.3011 8.49228C58.8817 5.80879 61.0341 3.73071 63.7582 2.25806C66.5159 0.752688 69.5763 0 72.9393 0C76.9078 0 80.3549 0.949041 83.2808 2.84712C86.2067 4.71248 88.2245 7.34689 89.3343 10.7503H81.2125Z" fill="url(#paint5_linear_6_2512)" fill-opacity="0.4"/>
<path d="M48.3615 6.23422C48.3615 8.9453 46.1029 11.1431 43.3168 11.1431C40.5308 11.1431 38.2722 8.9453 38.2722 6.23422C38.2722 3.52315 40.5308 1.32539 43.3168 1.32539C46.1029 1.32539 48.3615 3.52315 48.3615 6.23422Z" fill="#FFDAB6"/>
<defs>
<linearGradient id="paint0_linear_6_2512" x1="99.5" y1="0" x2="99.5" y2="35" gradientUnits="userSpaceOnUse">
<stop stop-opacity="0"/>
<stop offset="1" stop-color="#1C6BC8"/>
</linearGradient>
<linearGradient id="paint1_linear_6_2512" x1="99.7221" y1="-21.1606" x2="99.7221" y2="34.9999" gradientUnits="userSpaceOnUse">
<stop stop-opacity="0"/>
<stop offset="1" stop-color="#1C6BC8"/>
</linearGradient>
<linearGradient id="paint2_linear_6_2512" x1="99.5" y1="0" x2="99.5" y2="35" gradientUnits="userSpaceOnUse">
<stop stop-opacity="0"/>
<stop offset="1" stop-color="#1C6BC8"/>
</linearGradient>
<linearGradient id="paint3_linear_6_2512" x1="99.5" y1="0" x2="99.5" y2="35" gradientUnits="userSpaceOnUse">
<stop stop-opacity="0"/>
<stop offset="1" stop-color="#1C6BC8"/>
</linearGradient>
<linearGradient id="paint4_linear_6_2512" x1="99.5" y1="0" x2="99.5" y2="35" gradientUnits="userSpaceOnUse">
<stop stop-opacity="0"/>
<stop offset="1" stop-color="#1C6BC8"/>
</linearGradient>
<linearGradient id="paint5_linear_6_2512" x1="99.5" y1="0" x2="99.5" y2="35" gradientUnits="userSpaceOnUse">
<stop stop-opacity="0"/>
<stop offset="1" stop-color="#1C6BC8"/>
</linearGradient>
</defs>
</svg>
