<svg width="28" height="28" viewBox="0 0 28 28" fill="none" xmlns="http://www.w3.org/2000/svg">
<path d="M15.1667 7.00004C15.1667 6.69062 15.0438 6.39388 14.825 6.17508C14.6062 5.95629 14.3095 5.83337 14 5.83337C13.6906 5.83337 13.3939 5.95629 13.1751 6.17508C12.9563 6.39388 12.8334 6.69062 12.8334 7.00004V12.8334H7.00004C6.69062 12.8334 6.39388 12.9563 6.17508 13.1751C5.95629 13.3939 5.83337 13.6906 5.83337 14C5.83337 14.3095 5.95629 14.6062 6.17508 14.825C6.39388 15.0438 6.69062 15.1667 7.00004 15.1667H12.8334V21C12.8334 21.3095 12.9563 21.6062 13.1751 21.825C13.3939 22.0438 13.6906 22.1667 14 22.1667C14.3095 22.1667 14.6062 22.0438 14.825 21.825C15.0438 21.6062 15.1667 21.3095 15.1667 21V15.1667H21C21.3095 15.1667 21.6062 15.0438 21.825 14.825C22.0438 14.6062 22.1667 14.3095 22.1667 14C22.1667 13.6906 22.0438 13.3939 21.825 13.1751C21.6062 12.9563 21.3095 12.8334 21 12.8334H15.1667V7.00004Z" fill="white"/>
</svg>
