<svg width="24" height="24" viewBox="0 0 24 24" fill="none" xmlns="http://www.w3.org/2000/svg">
<path d="M14.826 5.37604C17.626 3.38104 19.913 2.49404 20.709 3.29104C21.506 4.08704 20.619 6.37404 18.624 9.17504M5.37598 14.825C3.38098 17.625 2.49398 19.913 3.29098 20.709C4.08698 21.506 6.37398 20.619 9.17498 18.624M9.17498 18.624C10.764 17.492 12.519 16.003 14.261 14.261C16.003 12.519 17.492 10.764 18.625 9.17404C19.0053 10.0676 19.2009 11.0289 19.2 12C19.2002 13.1906 18.9052 14.3626 18.3414 15.4112C17.7775 16.4598 16.9625 17.3522 15.9692 18.0085C14.9759 18.6648 13.8353 19.0646 12.6496 19.172C11.4639 19.2795 10.2701 19.0912 9.17498 18.624ZM17.09 6.91004C16.4269 6.21791 15.6323 5.66514 14.7528 5.28416C13.8732 4.90317 12.9265 4.70164 11.968 4.69137C11.0096 4.6811 10.0587 4.8623 9.17125 5.22435C8.28375 5.58641 7.47749 6.12202 6.79972 6.79978C6.12196 7.47755 5.58635 8.28381 5.22429 9.17131C4.86224 10.0588 4.68104 11.0096 4.6913 11.9681C4.70157 12.9265 4.90311 13.8733 5.2841 14.7528C5.66508 15.6323 6.21785 16.427 6.90998 17.09" stroke="white" stroke-width="1.5" stroke-linecap="round" stroke-linejoin="round"/>
</svg>
