<svg width="134" height="80" viewBox="0 0 134 80" fill="none" xmlns="http://www.w3.org/2000/svg">
<g filter="url(#filter0_d_9_26)">
<path d="M32.3 55.6C29.5333 55.6 27.1 54.9167 25 53.55C22.9333 52.1833 21.4833 50.35 20.65 48.05L25 46C25.7333 47.5333 26.7333 48.75 28 49.65C29.3 50.55 30.7333 51 32.3 51C33.6333 51 34.7167 50.7 35.55 50.1C36.3833 49.5 36.8 48.6833 36.8 47.65C36.8 46.9833 36.6167 46.45 36.25 46.05C35.8833 45.6167 35.4167 45.2667 34.85 45C34.3167 44.7333 33.7667 44.5333 33.2 44.4L28.95 43.2C26.6167 42.5333 24.8667 41.5333 23.7 40.2C22.5667 38.8333 22 37.25 22 35.45C22 33.8167 22.4167 32.4 23.25 31.2C24.0833 29.9667 25.2333 29.0167 26.7 28.35C28.1667 27.6833 29.8167 27.35 31.65 27.35C34.1167 27.35 36.3167 27.9667 38.25 29.2C40.1833 30.4 41.55 32.0833 42.35 34.25L38 36.3C37.4667 35 36.6167 33.9667 35.45 33.2C34.3167 32.4333 33.0333 32.05 31.6 32.05C30.3667 32.05 29.3833 32.35 28.65 32.95C27.9167 33.5167 27.55 34.2667 27.55 35.2C27.55 35.8333 27.7167 36.3667 28.05 36.8C28.3833 37.2 28.8167 37.5333 29.35 37.8C29.8833 38.0333 30.4333 38.2333 31 38.4L35.4 39.7C37.6333 40.3333 39.35 41.3333 40.55 42.7C41.75 44.0333 42.35 45.6333 42.35 47.5C42.35 49.1 41.9167 50.5167 41.05 51.75C40.2167 52.95 39.05 53.9 37.55 54.6C36.05 55.2667 34.3 55.6 32.3 55.6Z" fill="white"/>
<path d="M32.3 55.6C29.5333 55.6 27.1 54.9167 25 53.55C22.9333 52.1833 21.4833 50.35 20.65 48.05L25 46C25.7333 47.5333 26.7333 48.75 28 49.65C29.3 50.55 30.7333 51 32.3 51C33.6333 51 34.7167 50.7 35.55 50.1C36.3833 49.5 36.8 48.6833 36.8 47.65C36.8 46.9833 36.6167 46.45 36.25 46.05C35.8833 45.6167 35.4167 45.2667 34.85 45C34.3167 44.7333 33.7667 44.5333 33.2 44.4L28.95 43.2C26.6167 42.5333 24.8667 41.5333 23.7 40.2C22.5667 38.8333 22 37.25 22 35.45C22 33.8167 22.4167 32.4 23.25 31.2C24.0833 29.9667 25.2333 29.0167 26.7 28.35C28.1667 27.6833 29.8167 27.35 31.65 27.35C34.1167 27.35 36.3167 27.9667 38.25 29.2C40.1833 30.4 41.55 32.0833 42.35 34.25L38 36.3C37.4667 35 36.6167 33.9667 35.45 33.2C34.3167 32.4333 33.0333 32.05 31.6 32.05C30.3667 32.05 29.3833 32.35 28.65 32.95C27.9167 33.5167 27.55 34.2667 27.55 35.2C27.55 35.8333 27.7167 36.3667 28.05 36.8C28.3833 37.2 28.8167 37.5333 29.35 37.8C29.8833 38.0333 30.4333 38.2333 31 38.4L35.4 39.7C37.6333 40.3333 39.35 41.3333 40.55 42.7C41.75 44.0333 42.35 45.6333 42.35 47.5C42.35 49.1 41.9167 50.5167 41.05 51.75C40.2167 52.95 39.05 53.9 37.55 54.6C36.05 55.2667 34.3 55.6 32.3 55.6Z" fill="url(#paint0_linear_9_26)" fill-opacity="0.4"/>
<path d="M48.3 55V17.15H53.95V42.5L51.75 41.95L65.3 27.95H72.35L62.15 38.8L72.8 55H66.3L56.8 40.65L60.15 40.2L52.15 48.7L53.95 44.95V55H48.3Z" fill="white"/>
<path d="M48.3 55V17.15H53.95V42.5L51.75 41.95L65.3 27.95H72.35L62.15 38.8L72.8 55H66.3L56.8 40.65L60.15 40.2L52.15 48.7L53.95 44.95V55H48.3Z" fill="url(#paint1_linear_9_26)" fill-opacity="0.4"/>
<path d="M85.4 55.6C83.5667 55.6 81.95 55.2833 80.55 54.65C79.1833 53.9833 78.1167 53.0833 77.35 51.95C76.5833 50.7833 76.2 49.4167 76.2 47.85C76.2 46.3833 76.5167 45.0667 77.15 43.9C77.8167 42.7333 78.8333 41.75 80.2 40.95C81.5667 40.15 83.2833 39.5833 85.35 39.25L94.75 37.7V42.15L86.45 43.6C84.95 43.8667 83.85 44.35 83.15 45.05C82.45 45.7167 82.1 46.5833 82.1 47.65C82.1 48.6833 82.4833 49.5333 83.25 50.2C84.05 50.8333 85.0667 51.15 86.3 51.15C87.8333 51.15 89.1667 50.8167 90.3 50.15C91.4667 49.4833 92.3667 48.6 93 47.5C93.6333 46.3667 93.95 45.1167 93.95 43.75V36.8C93.95 35.4667 93.45 34.3833 92.45 33.55C91.4833 32.6833 90.1833 32.25 88.55 32.25C87.05 32.25 85.7333 32.65 84.6 33.45C83.5 34.2167 82.6833 35.2167 82.15 36.45L77.45 34.1C77.95 32.7667 78.7667 31.6 79.9 30.6C81.0333 29.5667 82.35 28.7667 83.85 28.2C85.3833 27.6333 87 27.35 88.7 27.35C90.8333 27.35 92.7167 27.75 94.35 28.55C96.0167 29.35 97.3 30.4667 98.2 31.9C99.1333 33.3 99.6 34.9333 99.6 36.8V55H94.2V50.1L95.35 50.25C94.7167 51.35 93.9 52.3 92.9 53.1C91.9333 53.9 90.8167 54.5167 89.55 54.95C88.3167 55.3833 86.9333 55.6 85.4 55.6Z" fill="white"/>
<path d="M85.4 55.6C83.5667 55.6 81.95 55.2833 80.55 54.65C79.1833 53.9833 78.1167 53.0833 77.35 51.95C76.5833 50.7833 76.2 49.4167 76.2 47.85C76.2 46.3833 76.5167 45.0667 77.15 43.9C77.8167 42.7333 78.8333 41.75 80.2 40.95C81.5667 40.15 83.2833 39.5833 85.35 39.25L94.75 37.7V42.15L86.45 43.6C84.95 43.8667 83.85 44.35 83.15 45.05C82.45 45.7167 82.1 46.5833 82.1 47.65C82.1 48.6833 82.4833 49.5333 83.25 50.2C84.05 50.8333 85.0667 51.15 86.3 51.15C87.8333 51.15 89.1667 50.8167 90.3 50.15C91.4667 49.4833 92.3667 48.6 93 47.5C93.6333 46.3667 93.95 45.1167 93.95 43.75V36.8C93.95 35.4667 93.45 34.3833 92.45 33.55C91.4833 32.6833 90.1833 32.25 88.55 32.25C87.05 32.25 85.7333 32.65 84.6 33.45C83.5 34.2167 82.6833 35.2167 82.15 36.45L77.45 34.1C77.95 32.7667 78.7667 31.6 79.9 30.6C81.0333 29.5667 82.35 28.7667 83.85 28.2C85.3833 27.6333 87 27.35 88.7 27.35C90.8333 27.35 92.7167 27.75 94.35 28.55C96.0167 29.35 97.3 30.4667 98.2 31.9C99.1333 33.3 99.6 34.9333 99.6 36.8V55H94.2V50.1L95.35 50.25C94.7167 51.35 93.9 52.3 92.9 53.1C91.9333 53.9 90.8167 54.5167 89.55 54.95C88.3167 55.3833 86.9333 55.6 85.4 55.6Z" fill="url(#paint2_linear_9_26)" fill-opacity="0.4"/>
<path d="M106.3 55V27.95H111.95V55H106.3ZM106.3 24.25V17.75H111.95V24.25H106.3Z" fill="white"/>
<path d="M106.3 55V27.95H111.95V55H106.3ZM106.3 24.25V17.75H111.95V24.25H106.3Z" fill="url(#paint3_linear_9_26)" fill-opacity="0.4"/>
<path d="M114 21C114 23.7614 111.761 26 109 26C106.239 26 104 23.7614 104 21C104 18.2386 106.239 16 109 16C111.761 16 114 18.2386 114 21Z" fill="url(#paint4_linear_9_26)"/>
</g>
<defs>
<filter id="filter0_d_9_26" x="0.649994" y="0" width="133.35" height="79.6001" filterUnits="userSpaceOnUse" color-interpolation-filters="sRGB">
<feFlood flood-opacity="0" result="BackgroundImageFix"/>
<feColorMatrix in="SourceAlpha" type="matrix" values="0 0 0 0 0 0 0 0 0 0 0 0 0 0 0 0 0 0 127 0" result="hardAlpha"/>
<feOffset dy="4"/>
<feGaussianBlur stdDeviation="10"/>
<feComposite in2="hardAlpha" operator="out"/>
<feColorMatrix type="matrix" values="0 0 0 0 0 0 0 0 0 0 0 0 0 0 0 0 0 0 0.35 0"/>
<feBlend mode="normal" in2="BackgroundImageFix" result="effect1_dropShadow_9_26"/>
<feBlend mode="normal" in="SourceGraphic" in2="effect1_dropShadow_9_26" result="shape"/>
</filter>
<linearGradient id="paint0_linear_9_26" x1="67.325" y1="16" x2="67.325" y2="55.6" gradientUnits="userSpaceOnUse">
<stop stop-color="white"/>
<stop offset="1" stop-color="#1C6BC8"/>
</linearGradient>
<linearGradient id="paint1_linear_9_26" x1="67.325" y1="16" x2="67.325" y2="55.6" gradientUnits="userSpaceOnUse">
<stop stop-color="white"/>
<stop offset="1" stop-color="#1C6BC8"/>
</linearGradient>
<linearGradient id="paint2_linear_9_26" x1="67.325" y1="16" x2="67.325" y2="55.6" gradientUnits="userSpaceOnUse">
<stop stop-color="white"/>
<stop offset="1" stop-color="#FFC94B"/>
</linearGradient>
<linearGradient id="paint3_linear_9_26" x1="67.325" y1="16" x2="67.325" y2="55.6" gradientUnits="userSpaceOnUse">
<stop stop-color="white"/>
<stop offset="1" stop-color="#FFC94B"/>
</linearGradient>
<linearGradient id="paint4_linear_9_26" x1="67.325" y1="16" x2="67.325" y2="55.6" gradientUnits="userSpaceOnUse">
<stop stop-color="white"/>
<stop offset="1" stop-color="#FFC94B"/>
</linearGradient>
</defs>
</svg>
