<svg width="78" height="73" viewBox="0 0 78 73" fill="none" xmlns="http://www.w3.org/2000/svg">
<ellipse cx="38.6471" cy="36.5" rx="38.6471" ry="36.5" fill="#0C0024"/>
<path d="M54.4182 31.3568L51.5977 33.0159L44.9614 21.5681L47.7818 19.9091L54.4182 31.3568ZM34.3432 29.6977L39.3204 38.325L49.4409 32.5181L44.4636 23.8909L34.3432 29.6977ZM36.9977 37.6613L33.6795 31.8545L26.5454 36.0022L29.8636 41.8091L36.9977 37.6613ZM21.5682 40.8136L23.2273 43.6341L27.5409 41.1454L25.8818 38.325L21.5682 40.8136ZM38.1591 39.8181L37.6614 39.1545L30.5273 43.3022L31.025 43.9659C31.3568 44.4636 31.8545 44.9613 32.3523 45.2931L29.6977 53.0909H33.0159L35.3386 45.9568H35.5045L37.9932 53.0909H41.3114L38.1591 43.8C38.9886 42.6386 38.9886 41.1454 38.1591 39.8181Z" fill="white"/>
</svg>
